<svg width="200" height="201" viewBox="0 0 200 201" fill="none" xmlns="http://www.w3.org/2000/svg">
<path fill-rule="evenodd" clip-rule="evenodd" d="M141.04 153.918C145.354 153.918 148.851 157.432 148.852 161.767C148.852 166.103 145.354 169.618 141.04 169.618C136.727 169.618 133.229 166.103 133.229 161.767C133.23 157.433 136.727 153.918 141.04 153.918ZM141.24 157.693C139.001 157.693 137.185 159.518 137.185 161.768C137.185 164.019 139.001 165.844 141.24 165.844C143.479 165.843 145.295 164.019 145.295 161.768C145.295 159.518 143.479 157.693 141.24 157.693Z" fill="#1A6B3B"/>
<path fill-rule="evenodd" clip-rule="evenodd" d="M67.6083 154.168C71.7846 154.168 75.1701 157.571 75.1701 161.768C75.1699 165.965 71.7845 169.368 67.6083 169.368C63.432 169.368 60.0458 165.966 60.0455 161.768C60.0455 157.571 63.4319 154.168 67.6083 154.168ZM67.7074 157.693C65.4682 157.693 63.6525 159.518 63.6525 161.768C63.6527 164.019 65.4683 165.843 67.7074 165.844C69.9466 165.844 71.7621 164.019 71.7623 161.768C71.7623 159.518 69.9467 157.693 67.7074 157.693Z" fill="#1A6B3B"/>
<path d="M73.6776 127.868C74.0756 127.868 74.2742 127.968 74.2742 128.368C74.2742 128.768 74.0756 128.968 73.6776 128.968H73.0809V127.868H73.6776Z" fill="#1A6B3B"/>
<path fill-rule="evenodd" clip-rule="evenodd" d="M82.0362 125.768C83.0309 125.769 83.6278 126.468 83.6278 127.368V130.868C83.6278 131.768 83.0309 132.467 82.0362 132.468H61.8364C61.1399 132.467 60.1456 131.768 60.1456 130.868V127.368C60.1456 126.468 60.8419 125.769 61.7373 125.768H82.0362ZM63.7273 127.468C62.7325 127.268 61.9365 127.969 61.9365 129.268C61.8372 130.468 62.4343 130.968 63.429 130.968C64.1253 130.968 64.4243 130.768 64.6232 130.368L64.1257 129.868C64.1257 129.968 63.7269 130.468 63.3289 130.468C62.8318 130.368 62.4341 130.268 62.434 129.268C62.434 128.369 62.9316 127.968 63.429 127.968C63.9259 127.968 64.1252 128.268 64.324 128.368L64.7224 127.868C64.6226 127.768 64.2245 127.468 63.7273 127.468ZM65.2199 130.968H65.8165V129.368H67.309V130.968H68.0057V127.368H67.309V128.768H65.8165V127.368H65.2199V130.968ZM68.7025 129.468C68.7025 130.467 69.3 130.967 70.0959 130.968C70.7923 130.967 71.4883 130.467 71.4883 129.468V127.368H70.8917V129.468C70.8917 129.968 70.6925 130.368 70.195 130.368C69.6977 130.368 69.3992 129.968 69.3992 129.468V127.368H68.7025V129.468ZM72.3842 130.968H73.0809V129.468H73.6776L74.3743 130.868H75.1701L74.2742 129.368C74.5727 129.268 74.8718 128.868 74.8718 128.468C75.0704 127.868 74.5729 127.368 73.6776 127.368H72.2842L72.3842 130.968ZM77.3594 127.368C76.3645 127.268 75.5685 127.969 75.5685 129.268C75.5687 130.468 76.2647 130.967 77.2593 130.968C78.0552 130.968 78.2551 130.867 78.5536 130.468L78.0561 129.968C77.8572 129.968 77.657 130.468 77.2593 130.468C76.7621 130.368 76.2644 130.268 76.2643 129.268C76.2643 128.369 76.762 127.968 77.2593 127.968C77.6571 127.968 77.8569 128.268 78.1552 128.368L78.5536 127.868C78.3544 127.768 77.8566 127.368 77.3594 127.368ZM79.0511 130.868H79.6477V129.368H81.1403V130.868H81.7369V127.268H81.1403V128.768H79.6477V127.268H79.0511V130.868Z" fill="#1A6B3B"/>
<path fill-rule="evenodd" clip-rule="evenodd" d="M165.825 117.969C168.81 117.969 170.8 120.068 171.099 123.068L172.094 137.168V158.469C172.093 160.168 170.701 161.468 169.308 161.668L154.282 163.969H150.8L150.9 161.469C150.9 155.469 145.925 151.969 141.248 151.969C135.278 151.969 131.298 156.669 131.298 161.469V163.969H77.6654V161.469C77.7649 156.469 73.7852 151.969 67.8153 151.969C61.6466 151.969 57.865 157.669 57.865 161.469V163.969H37.2678C34.7807 163.968 32.8893 161.968 32.8893 159.668L32.9078 157.125C34.0846 157.167 34.976 157.085 35.6295 156.858C36.0254 156.721 36.3593 156.521 36.6129 156.243C36.8692 155.962 37.013 155.633 37.0813 155.291L37.0851 155.268L37.0881 155.245L37.089 155.239V155.236C37.0897 155.231 37.0909 155.223 37.0919 155.214C37.0942 155.195 37.0969 155.166 37.1007 155.132C37.1083 155.062 37.1194 154.963 37.1298 154.844C37.1508 154.605 37.1728 154.28 37.1794 153.942C37.1859 153.61 37.1773 153.239 37.1269 152.919C37.1019 152.759 37.063 152.586 36.9967 152.428C36.95 152.316 36.8715 152.169 36.7402 152.046C36.7055 152.013 36.6701 151.981 36.6372 151.946C36.5288 151.833 36.345 151.665 36.0513 151.597C35.9063 151.563 35.7433 151.553 35.5761 151.548C35.4021 151.543 35.1728 151.543 34.8794 151.543H32.9486L32.9894 145.969C33.8852 145.669 36.9695 145.668 36.9695 143.668V128.168C36.9695 127.468 36.9689 126.668 36.0736 126.668L32.2927 126.969C30.9998 126.969 30.5019 127.469 30.5019 128.469C30.6033 128.469 31.596 128.669 31.596 129.068L31.2977 135.868C30.8001 137.567 27.9151 136.369 27.9142 135.469V128.969C27.9142 128.669 27.8159 128.169 28.3126 127.969C28.1136 125.469 29.5074 123.368 32.4919 123.368H36.1727C36.1728 120.068 38.7606 117.868 41.5462 117.868L165.825 117.969ZM40.9496 127.293C40.5309 127.293 40.1693 127.415 39.9177 127.687C39.6709 127.955 39.5815 128.311 39.5815 128.668V160.668C39.5815 161.129 39.651 161.537 39.9497 161.792C40.0964 161.917 40.2684 161.976 40.4327 162.007C40.5936 162.037 40.7719 162.043 40.9496 162.043H45.5263C45.7354 162.043 45.9193 162.03 46.0724 161.994C46.2286 161.957 46.3841 161.888 46.5019 161.755C46.6193 161.622 46.662 161.467 46.6798 161.341C46.6965 161.22 46.6963 161.084 46.6963 160.968V128.668C46.6963 128.372 46.6772 128.017 46.5 127.74C46.2942 127.419 45.9463 127.293 45.5263 127.293H40.9496ZM48.5114 127.293C48.3534 127.293 48.191 127.316 48.044 127.389C47.8896 127.465 47.7752 127.584 47.6981 127.727C47.5608 127.984 47.5417 128.326 47.5417 128.668V160.968C47.5417 161.146 47.5479 161.305 47.5708 161.437C47.5937 161.569 47.6417 161.723 47.7632 161.846C47.8886 161.971 48.0411 162.012 48.1577 162.028C48.2676 162.043 48.3972 162.043 48.5114 162.043H53.4865C53.9373 162.043 54.3692 161.998 54.6846 161.774C55.0375 161.524 55.154 161.125 55.154 160.668V150.293H111.223V160.668C111.223 161.158 111.33 161.556 111.639 161.801C111.926 162.027 112.3 162.043 112.591 162.043H117.965C118.19 162.043 118.38 162.037 118.532 162.016C118.679 161.996 118.843 161.956 118.977 161.851C119.129 161.732 119.19 161.574 119.214 161.437C119.234 161.318 119.233 161.18 119.233 161.068V128.968C119.233 128.553 119.185 128.139 118.992 127.822C118.775 127.466 118.418 127.293 117.965 127.293H112.691C112.21 127.293 111.813 127.449 111.551 127.788C111.303 128.108 111.223 128.532 111.223 128.968V149.043H55.154V129.168C55.1539 128.626 55.047 128.164 54.8129 127.828C54.5671 127.475 54.2021 127.293 53.7858 127.293H48.5114ZM121.347 127.293C121.142 127.293 120.943 127.322 120.768 127.406C120.585 127.495 120.449 127.633 120.358 127.805C120.273 127.967 120.231 128.153 120.208 128.339C120.185 128.526 120.178 128.739 120.178 128.968V160.968C120.178 161.135 120.178 161.288 120.189 161.408C120.2 161.521 120.227 161.688 120.343 161.824C120.469 161.973 120.639 162.014 120.756 162.029C120.869 162.044 121.01 162.043 121.148 162.043H126.522C126.976 162.043 127.42 161.996 127.753 161.785C128.128 161.547 128.288 161.154 128.288 160.668V150.293H166.695C167.244 150.293 167.69 150.741 167.69 151.293V153.468C167.69 153.756 167.711 154.109 167.882 154.422C168.075 154.772 168.393 154.966 168.75 155.077C169.089 155.182 169.521 155.233 170.042 155.26C170.436 155.28 170.909 155.289 171.471 155.292C171.814 155.294 172.093 155.013 172.093 154.668C172.093 154.323 171.814 154.043 171.471 154.041C170.921 154.038 170.472 154.03 170.107 154.011C169.603 153.984 169.3 153.941 169.117 153.884C169.033 153.857 168.993 153.833 168.978 153.823C168.974 153.819 168.969 153.812 168.967 153.806C168.955 153.776 168.934 153.689 168.934 153.468V146.568C168.934 146.171 169.003 145.958 169.062 145.864C169.085 145.827 169.103 145.814 169.112 145.809C169.159 145.783 169.208 145.749 169.208 145.694V145.168C169.208 144.823 168.916 144.527 168.603 144.669C168.364 144.778 168.161 144.956 168.01 145.196C167.77 145.578 167.69 146.067 167.69 146.568V148.043C167.69 148.595 167.244 149.043 166.695 149.043H128.288V128.968C128.288 128.51 128.174 128.09 127.915 127.778C127.649 127.457 127.264 127.293 126.82 127.293H121.347ZM135.269 143.143C134.866 143.144 134.464 143.193 134.161 143.373C133.846 143.56 133.652 143.879 133.652 144.368C133.652 144.72 133.858 145.029 134.163 145.257C134.466 145.481 134.88 145.635 135.338 145.689C135.461 145.738 135.578 145.777 135.679 145.81C135.787 145.846 135.874 145.878 135.944 145.916C136.013 145.953 136.058 145.993 136.088 146.042C136.118 146.091 136.14 146.16 136.14 146.268C136.14 146.376 136.118 146.455 136.086 146.512C136.054 146.567 136.007 146.611 135.944 146.645C135.812 146.717 135.614 146.743 135.369 146.743C134.623 146.743 134.37 146.382 134.045 146.164L133.96 146.107L133.887 146.18L133.39 146.68L133.302 146.768L133.39 146.857C133.648 147.117 133.913 147.304 134.245 147.424C134.574 147.543 134.964 147.594 135.468 147.594C135.919 147.594 136.346 147.544 136.661 147.365C136.822 147.274 136.955 147.148 137.046 146.98C137.138 146.813 137.184 146.609 137.184 146.368C137.184 146.124 137.13 145.92 137.031 145.749C136.932 145.579 136.792 145.447 136.631 145.34C136.317 145.13 135.898 144.997 135.512 144.851L135.491 144.844H135.468C135.224 144.844 134.997 144.818 134.837 144.743C134.759 144.706 134.701 144.659 134.662 144.602C134.623 144.546 134.598 144.471 134.598 144.368C134.598 144.291 134.617 144.234 134.645 144.191C134.674 144.148 134.718 144.11 134.777 144.08C134.9 144.018 135.077 143.993 135.269 143.993C135.541 143.993 135.913 144.085 136.289 144.368L136.386 144.441L136.461 144.347L136.859 143.847L136.929 143.76L136.85 143.68C136.417 143.245 135.878 143.143 135.269 143.143ZM147.185 143.993H148.678V147.594H149.822V143.993H151.116V143.143H147.185V143.993ZM151.663 143.993H153.056V147.593H154.101V143.993H155.493V143.243H151.663V143.993ZM137.932 147.493H139.076V145.593H140.817V147.493H141.862V143.243H140.817V144.843H138.976V143.243H137.932V147.493ZM142.608 145.969C142.608 146.507 142.826 146.897 143.185 147.146C143.536 147.391 144.013 147.493 144.524 147.493C145.039 147.493 145.54 147.364 145.914 147.096C146.293 146.824 146.539 146.411 146.539 145.868V143.143H145.394V145.768C145.394 146.284 144.968 146.643 144.424 146.643C143.988 146.643 143.554 146.291 143.554 145.768V143.143H142.608V145.969ZM156.239 147.493H159.374V146.643H157.284V143.143H156.239V147.493ZM160.021 147.493H163.354V146.643H161.066V145.693H162.857V144.844H161.066V144.094H163.255V143.143H160.021V147.493ZM132.274 123.513C131.941 123.624 131.538 123.824 131.214 124.135C130.884 124.451 130.626 124.894 130.626 125.468V139.968C130.626 140.458 130.926 140.947 131.253 141.29C131.423 141.468 131.62 141.627 131.823 141.743C132.023 141.856 132.256 141.943 132.492 141.943H146.223C146.762 141.943 147.23 141.642 147.548 141.278C147.866 140.916 148.089 140.43 148.089 139.968V125.468C148.089 125.038 147.939 124.562 147.67 124.186C147.399 123.808 146.974 123.493 146.422 123.493H132.332L132.274 123.513ZM151.397 123.293C150.917 123.293 150.455 123.561 150.126 123.89C149.798 124.22 149.532 124.685 149.532 125.168V139.968C149.532 140.445 149.793 140.931 150.116 141.284C150.436 141.634 150.902 141.943 151.397 141.943H162.244C162.706 141.943 163.213 141.703 163.678 141.387C164.155 141.062 164.644 140.618 165.082 140.133C165.52 139.647 165.917 139.108 166.207 138.587C166.491 138.076 166.696 137.539 166.696 137.068V137.052L166.198 125.452C166.195 124.885 166.023 124.339 165.634 123.932C165.238 123.52 164.659 123.293 163.934 123.293H151.397ZM59.4567 123.493C59.0489 123.493 58.5884 123.69 58.2343 124.016C57.8714 124.351 57.5912 124.847 57.591 125.468V139.968C57.591 140.407 57.8642 140.871 58.1799 141.202C58.4979 141.536 58.9626 141.842 59.4567 141.843H84.2332C84.8303 141.843 85.3646 141.603 85.7491 141.262C86.1271 140.925 86.3972 140.455 86.3972 139.968V125.468C86.397 124.992 86.1375 124.507 85.8316 124.158C85.6738 123.978 85.4882 123.816 85.2914 123.698C85.0978 123.582 84.8691 123.493 84.6306 123.493H59.4567ZM90.0041 123.493C88.9871 123.493 88.1388 124.377 88.1385 125.468V139.968C88.1385 140.842 88.8718 141.842 90.0041 141.843H106.521C106.746 141.843 106.978 141.77 107.184 141.67C107.394 141.568 107.603 141.426 107.788 141.262C108.14 140.949 108.487 140.479 108.487 139.968V125.168C108.487 124.963 108.418 124.759 108.33 124.585C108.241 124.406 108.117 124.232 107.98 124.079C107.842 123.927 107.682 123.785 107.51 123.681C107.343 123.578 107.138 123.493 106.92 123.493H90.0041Z" fill="#1A6B3B"/>
<path d="M35.5411 152.798C35.5619 152.798 35.582 152.799 35.5994 152.8C35.688 152.804 35.7698 152.847 35.8326 152.91C35.8485 152.926 35.8613 152.946 35.8676 152.968C35.8777 153.003 35.8888 153.051 35.8987 153.114C35.9322 153.327 35.9425 153.613 35.9366 153.918C35.9307 154.217 35.9094 154.512 35.8899 154.733C35.8803 154.843 35.8715 154.933 35.8647 154.996C35.8622 155.019 35.8596 155.039 35.8579 155.054C35.8263 155.206 35.7724 155.314 35.6946 155.399C35.6124 155.489 35.4721 155.591 35.2224 155.678C34.7768 155.832 34.0647 155.916 32.9544 155.877C32.942 155.876 32.9288 155.878 32.9165 155.879L32.9399 152.793H34.8794C35.1807 152.793 35.3891 152.793 35.5411 152.798Z" fill="#1A6B3B"/>
<path d="M35.27 129.268C35.7675 128.468 35.5684 141.966 35.5683 143.468C35.4688 144.368 34.9711 144.768 33.3791 144.968C33.3871 144.881 34.7738 129.969 35.27 129.268Z" fill="#1A6B3B"/>
<path fill-rule="evenodd" clip-rule="evenodd" d="M156.336 53.7197C156.483 53.7025 156.613 53.8185 156.613 53.9677V70.5156C156.613 71.1266 156.956 71.6856 157.5 71.9589L158.267 72.3437C158.352 72.3867 158.405 72.4752 158.404 72.5712L158.105 91.372C158.102 91.5544 157.912 91.6723 157.749 91.5927L142.525 84.1923C142.439 84.1512 142.384 84.0635 142.384 83.9677V62.4677C142.384 61.2301 142.453 60.531 142.757 60.0361C142.912 59.7836 143.12 59.5977 143.372 59.4218C143.618 59.2506 143.93 59.0735 144.291 58.8554C146.904 56.9405 150.898 55.0355 153.694 54.0322C153.711 54.0257 153.73 54.0214 153.748 54.0195L156.336 53.7197ZM150.201 84.1435C149.69 84.1435 149.275 84.5601 149.274 85.0742V85.8681C149.274 85.9363 149.329 85.992 149.397 85.9931L155.367 86.0937H155.369C155.572 86.0937 155.703 85.9209 155.777 85.7529C155.855 85.575 155.897 85.3454 155.903 85.122C155.91 84.8989 155.881 84.6666 155.805 84.4853C155.73 84.3054 155.591 84.1435 155.369 84.1435H150.201ZM150.244 79.6435C149.709 79.6437 149.275 80.0799 149.274 80.6181C149.274 81.1565 149.708 81.5934 150.244 81.5937H155.369C155.591 81.5937 155.73 81.4315 155.805 81.2519C155.881 81.0707 155.91 80.8381 155.903 80.6152C155.897 80.3915 155.855 80.1613 155.777 79.9833C155.703 79.8151 155.573 79.6435 155.369 79.6435H150.244ZM150.356 74.7431C149.759 74.7431 149.274 75.2299 149.274 75.83V76.7675C149.274 76.8359 149.329 76.8919 149.397 76.8935L154.969 76.9931H154.97C155.213 76.9931 155.384 76.8174 155.487 76.6122C155.593 76.4039 155.648 76.1343 155.655 75.871C155.661 75.6085 155.62 75.337 155.517 75.1259C155.412 74.9126 155.233 74.7431 154.97 74.7431H150.356ZM145.22 65.4433C145.157 65.4433 145.104 65.4908 145.097 65.5536L144.898 67.2538C144.889 67.3281 144.947 67.3935 145.021 67.3935H152.186C152.407 67.3933 152.546 67.2314 152.622 67.0517C152.698 66.8704 152.726 66.638 152.72 66.415C152.713 66.1913 152.671 65.9611 152.593 65.7831C152.519 65.6151 152.389 65.4435 152.186 65.4433H145.22ZM145.32 61.6435C145.254 61.6436 145.2 61.6949 145.196 61.7607L145.096 63.3603C145.092 63.4322 145.149 63.493 145.22 63.4931H152.186C152.401 63.4929 152.547 63.3463 152.633 63.1747C152.718 63.0026 152.758 62.7812 152.758 62.5683C152.758 62.3556 152.718 62.1349 152.633 61.9628C152.547 61.791 152.401 61.6437 152.186 61.6435H145.32Z" fill="#1A6B3B"/>
<path d="M51.3888 63.9677V67.7685C51.8863 64.7685 53.2793 62.5685 53.8763 63.2685C54.3739 63.4685 52.7822 65.7685 52.7822 67.7685C53.8767 64.4685 56.2648 62.8685 56.7623 63.7685V64.2685C55.4688 64.8686 54.1754 66.9682 53.4789 68.3681C55.1705 65.7681 59.349 63.4685 59.8465 64.2685V64.9677C57.1599 65.9677 52.7826 67.8683 52.6831 74.3681C52.6831 78.9681 53.6781 88.2685 53.6781 88.2685L47.8071 91.2685H47.4087C47.4087 91.2685 48.3045 79.2688 48.3046 74.7685C48.3046 68.2688 44.3248 65.7686 41.2403 64.7685V64.3681L41.4385 64.2685C41.936 63.5685 46.215 65.2685 47.8071 68.2685C46.8121 65.9685 44.5231 63.9677 44.9211 63.4677C46.3142 62.2677 48.8023 66.9685 49.0013 67.7685C48.305 65.3691 46.8128 62.869 47.4087 62.9677C48.901 62.2678 49.996 66.7668 50.2946 67.4677V63.3681L51.1906 62.8681L51.3888 63.9677Z" fill="#1A6B3B"/>
<path d="M64.3241 56.4677C64.8217 54.4676 66.3148 50.4677 67.4093 50.9677L67.8067 51.2685L65.9167 56.3681C66.8122 54.4682 70.0951 50.8685 70.7918 51.8681L71.1902 52.2685C70.195 53.2684 68.1057 54.4687 66.9118 57.2685C69.2998 53.8685 74.1752 51.4685 74.6728 52.2685V53.2685C72.0856 53.9686 66.1157 57.2682 65.9167 64.3681C65.8176 69.7509 67.2997 81.3937 67.3092 81.4677L59.7474 84.9677L59.8465 84.2685C59.8465 84.2685 61.1403 69.769 61.2399 65.2685C61.3394 58.2685 56.3639 54.2685 52.3838 53.2685L52.6831 51.9677C53.8778 51.4685 58.4537 53.8683 60.8415 56.9677C59.8462 54.4679 55.8672 52.2681 56.1657 51.8681C56.7627 50.4683 59.2495 52.4682 61.339 55.8681C60.3442 53.3686 59.1509 50.8688 59.8465 50.9677L60.7424 50.8681C61.1405 51.3683 62.7329 54.7685 63.1309 56.2685V50.8681L64.225 50.7685L64.3241 56.4677Z" fill="#1A6B3B"/>
<path fill-rule="evenodd" clip-rule="evenodd" d="M137.807 44.4179C138.742 44.4179 139.499 45.1791 139.499 46.1181V46.7704C139.499 47.349 139.966 47.8181 140.542 47.8183H141.34C141.478 47.8183 141.589 47.9304 141.588 48.0683L141.489 82.5683C141.489 82.7624 141.278 82.8819 141.112 82.7822L132.157 77.3827C132.04 77.312 132.002 77.1591 132.071 77.0409L136.748 69.0712C137.325 68.0879 136.967 66.82 135.963 66.287L129.183 62.6894C129.102 62.6461 129.051 62.5611 129.051 62.4687V48.0683C129.051 47.9789 129.099 47.8962 129.176 47.8515L130.185 47.2636C130.654 46.9907 130.942 46.4875 130.942 45.9433C130.942 45.1009 131.622 44.4181 132.46 44.4179H137.807ZM132.733 51.3427C132.142 51.3427 131.663 51.8241 131.663 52.4179C131.663 53.0117 132.142 53.4931 132.733 53.4931H138.753C138.996 53.4929 139.156 53.3219 139.24 53.1181C139.323 52.9148 139.345 52.6539 139.311 52.4013C139.278 52.1478 139.188 51.8872 139.033 51.6874C138.875 51.4849 138.648 51.3428 138.354 51.3427H132.733Z" fill="#1A6B3B"/>
<path d="M90.3007 45.1181C90.4335 45.1214 90.5403 45.2288 90.5436 45.3622L90.7418 54.163C90.7442 54.2544 90.6955 54.3403 90.6165 54.3857L79.1523 60.955C79.1236 60.9716 79.1074 61.004 79.1115 61.037C79.1155 61.0679 79.102 61.0985 79.0765 61.1161L78.992 61.1747L76.8027 62.6747C76.7346 62.7212 76.6471 62.7304 76.5705 62.7001L76.073 62.4999C75.9606 62.4544 75.8966 62.3338 75.9224 62.2148L77.7132 53.915C77.7725 53.6407 78.1674 53.6571 78.203 53.9355L78.6567 57.4882L77.7084 45.0878C77.697 44.9404 77.8149 44.8146 77.962 44.8183L90.3007 45.1181Z" fill="#1A6B3B"/>
<path d="M123.008 31.0058C123.28 30.9794 123.555 31.0442 123.789 31.1855C124.183 31.4227 124.424 31.8504 124.424 32.3115V58.6122C124.424 58.7795 124.378 58.9434 124.293 59.0868C124.034 59.5196 123.478 59.6643 123.044 59.4111L116.464 55.5683C115.27 54.8685 111.988 52.8691 112.085 52.2685C112.782 44.4685 113.28 36.0679 117.459 33.1679C119.273 31.9207 119.804 31.3176 123.008 31.0058Z" fill="#1A6B3B"/>
<path d="M86.1039 37.4179C86.2457 37.4115 86.3642 37.5252 86.3643 37.6679V38.8876C86.3643 39.6405 86.9504 40.2623 87.6984 40.3027L91.7009 40.5185C91.762 40.5216 91.8198 40.5473 91.8632 40.5908L92.8582 41.5908C92.9008 41.6336 92.9267 41.6905 92.9311 41.7509C92.9557 42.1226 92.9812 42.4894 92.9797 42.8251C92.9781 43.1605 92.9496 43.4846 92.8572 43.7704C92.7631 44.0614 92.6007 44.317 92.3354 44.5038C92.0736 44.6881 91.7327 44.7904 91.3054 44.8173L91.2976 44.8183H91.2899C87.309 44.8183 79.7343 44.7182 73.6495 44.0165L73.6486 44.0156C71.3524 43.7646 69.7365 43.4126 68.6132 42.9765C67.4892 42.5401 66.8314 42.0094 66.4939 41.3876C66.4742 41.3511 66.4638 41.3101 66.4638 41.2685C66.464 40.9538 66.6154 40.6945 66.8466 40.4941C67.073 40.2981 67.3854 40.1477 67.7426 40.0302C68.4583 39.7949 69.4297 39.6684 70.4818 39.6181H78.5353C79.067 39.6181 79.4982 39.1847 79.4982 38.6503V37.9677C79.4984 37.8342 79.6026 37.7243 79.7353 37.7177L86.1039 37.4179Z" fill="#1A6B3B"/>
<path fill-rule="evenodd" clip-rule="evenodd" d="M129.15 90.327C129.151 88.676 130.862 87.5877 132.347 88.2938L154.436 98.8006C155.218 99.1726 155.717 99.9643 155.718 100.834V113.591C155.717 114.823 154.73 115.827 153.504 115.841L131.414 116.095C130.168 116.109 129.15 115.097 129.15 113.845V90.327ZM142.235 101.594C142.069 101.594 141.898 101.642 141.741 101.703C141.58 101.766 141.409 101.853 141.235 101.956C140.888 102.161 140.508 102.44 140.144 102.742C139.429 103.335 138.711 104.072 138.426 104.587L138.382 104.665L138.379 104.755L137.966 115.844H146.289V105.768C146.289 105.174 146.003 104.618 145.635 104.142C145.263 103.663 144.776 103.225 144.303 102.859C143.828 102.492 143.355 102.186 143.002 101.973C142.825 101.867 142.677 101.783 142.573 101.725C142.521 101.697 142.479 101.674 142.451 101.659C142.437 101.652 142.425 101.645 142.418 101.641C142.414 101.64 142.411 101.638 142.409 101.637C142.408 101.636 142.407 101.636 142.406 101.636L142.405 101.635L142.325 101.594H142.235Z" fill="#1A6B3B"/>
<path d="M72.665 88.0975C74.1564 87.3482 75.9099 88.4415 75.9047 90.117L75.824 113.776C75.8195 115.015 74.8183 116.018 73.5852 116.018H67.0855V105.76L67.0622 105.525C66.9829 105.006 66.726 104.526 66.4072 104.104C66.0408 103.62 65.5701 103.185 65.1149 102.824C64.6581 102.462 64.2058 102.166 63.8691 101.961C63.7005 101.858 63.5591 101.777 63.4601 101.722C63.4108 101.694 63.3715 101.673 63.3444 101.658C63.3312 101.651 63.3206 101.645 63.3133 101.641C63.3098 101.64 63.3066 101.638 63.3046 101.637C63.3036 101.636 63.3022 101.636 63.3017 101.636L63.22 101.594H63.1297C62.8147 101.594 62.418 101.741 62.0404 101.922C61.6449 102.111 61.2061 102.367 60.7869 102.641C60.3669 102.916 59.9576 103.216 59.6199 103.492C59.2912 103.761 59.002 104.032 58.8464 104.251L58.7794 104.344L58.7764 104.459L58.4713 116.018H51.8744C50.6436 116.018 49.6434 115.019 49.6356 113.782L49.5559 101.114C49.5508 100.257 50.0311 99.4711 50.7939 99.0877L72.665 88.0975Z" fill="#1A6B3B"/>
<path fill-rule="evenodd" clip-rule="evenodd" d="M101.145 57.4989C101.821 57.115 102.647 57.1115 103.327 57.4881L126.405 70.2811C127.116 70.6751 127.559 71.4254 127.563 72.2411L127.748 113.758C127.753 115.004 126.749 116.017 125.509 116.017H79.7468C78.5106 116.017 77.508 115.01 77.508 113.767V72.2342C77.5083 71.4233 77.9434 70.6742 78.6458 70.2752L101.145 57.4989ZM99.5229 78.1424H89.7719V84.492H99.4238V108.692H105.145V84.492H115.195V78.1424H105.145V67.6424H99.5229V78.1424Z" fill="#1A6B3B"/>
<path d="M73.042 80.7088C74.3782 80.0503 75.9351 81.0455 75.9086 82.5409L75.8881 83.6756C75.8751 84.41 75.4623 85.0781 74.8134 85.4159L48.1139 99.3084C47.9111 99.414 47.6907 99.4818 47.4639 99.5086C46.6579 99.6039 45.8812 99.1726 45.5321 98.4364L44.5225 96.3065C44.2819 95.7984 44.3674 95.1949 44.7392 94.7743C44.8594 94.6384 45.0053 94.5272 45.1677 94.4471L73.042 80.7088Z" fill="#1A6B3B"/>
<path d="M130.018 78.9676C130.134 78.9676 130.249 78.9964 130.352 79.0506L159.38 94.3407C160.352 94.8531 160.728 96.0608 160.219 97.0389L159.756 97.9295C159.254 98.895 158.075 99.2787 157.105 98.7928L130.402 85.4198C129.726 85.0814 129.3 84.3881 129.3 83.6297V79.6903C129.3 79.2915 129.621 78.9678 130.018 78.9676Z" fill="#1A6B3B"/>
<path d="M103.693 42.0184H106.081V44.9178H103.693V49.4559L133.877 66.6034C134.201 66.7872 134.47 67.0556 134.655 67.3797C135.037 68.0529 135.015 68.8851 134.596 69.536L133.228 71.6581C133.044 71.9443 132.728 72.1178 132.389 72.118C132.225 72.1179 132.062 72.0773 131.918 71.9999L103.009 56.5106C102.479 56.2266 101.839 56.2376 101.319 56.5399L75.893 71.3192C75.6814 71.4422 75.4505 71.5288 75.2109 71.577L73.934 71.8338C73.0003 72.0214 72.0507 71.5946 71.567 70.7704L71.0034 69.8104C70.3775 68.7432 70.7274 67.3679 71.7866 66.7342L100.111 49.7967V44.9178H97.8224V42.0184H100.111V39.118H103.693V42.0184Z" fill="#1A6B3B"/>
</svg>
